<svg xmlns="http://www.w3.org/2000/svg" xmlns:xlink="http://www.w3.org/1999/xlink" width="47" height="47" version="1.1" viewBox="0 0 47 47"><title>Group 3</title><desc>Created with Sketch.</desc><g id="Page-1" fill="none" fill-rule="evenodd" stroke="none" stroke-width="1"><g id="styleguide10" fill="#FFF" transform="translate(-793.000000, -576.000000)"><g id="Icons" transform="translate(559.000000, 550.000000)"><g id="2" transform="translate(176.680384, 0.000000)"><g id="Group-3" transform="translate(57.613169, 26.886145)"><path id="Shape" fill-rule="nonzero" d="M21.4290261,1.61768902 C21.4730169,2.46582968 22.1972016,3.11798952 23.0453699,3.0740001 C34.0937833,3.0740001 43.0179351,11.9978614 43.0179351,23.0459152 C43.0179351,34.0939689 34.0937833,43.0178302 23.0453699,43.0178302 C11.9969566,43.0178302 3.07280476,34.0939689 3.07280476,23.0459152 C3.07280476,13.6478489 9.54237952,5.79069265 18.2601481,3.65011303 C19.0863466,3.45207357 19.5944691,2.61992068 19.3964335,1.79374913 C19.1983978,0.967577577 18.3662076,0.459471574 17.5400091,0.657500793 C7.47178784,3.12997267 0,12.2355784 0,23.0460176 C0,35.7543008 10.3365706,46.090535 23.0452675,46.090535 C35.7539643,46.090535 46.090535,35.7543008 46.090535,23.0460176 C46.090535,10.3377344 35.7539643,0.00150019808 23.0452675,0.00150019808 C22.9912545,-0.000500066027 22.9392439,-0.000500066027 22.8852309,0.00150019808 C22.0372163,0.045406661 21.3850352,0.769548358 21.4290261,1.61768902 Z"/><g id="Group-4" transform="translate(11.522634, 15.363512)"><polygon id="Fill-1" points="0 2.881 23.045 2.881 23.045 0 0 0"/><polygon id="Fill-1-Copy" points="3.828 9.611 19.192 9.611 19.192 6.731 3.828 6.731"/><polygon id="Fill-1-Copy-2" points="7.682 16.049 15.364 16.049 15.364 13.169 7.682 13.169"/></g></g></g></g></g></g></svg>