<svg xmlns="http://www.w3.org/2000/svg" xmlns:xlink="http://www.w3.org/1999/xlink" width="24" height="26" version="1.1" viewBox="0 0 24 26"><title>Icon - Google Play Copy</title><desc>Created with Sketch.</desc><defs><linearGradient id="linearGradient-1" x1="19.215%" x2="69.302%" y1="-35.157%" y2="93.537%"><stop offset="0%" stop-color="#19A3B4"/><stop offset="34.817%" stop-color="#5BC3AF"/><stop offset="92.234%" stop-color="#C8F7A6"/><stop offset="100%" stop-color="#D7FEA5"/></linearGradient><path id="path-2" d="M17.2812739,8.82283396 L2.22478094,0.263816916 C1.79786158,0.0223376588 1.40410787,-0.0338372741 1.08515324,0.069028512 L13.4178302,12.8178201 L17.2812739,8.82283396"/><linearGradient id="linearGradient-4" x1="-14.698%" x2="74.844%" y1="-114.322%" y2="114.156%"><stop offset="0%" stop-color="#FC227C"/><stop offset="100%" stop-color="#FEEB7B"/></linearGradient><linearGradient id="linearGradient-5" x1="28.151%" x2="48.188%" y1="-14.814%" y2="82.894%"><stop offset="0%" stop-color="#0E4DA0"/><stop offset="100%" stop-color="#6BFED4"/></linearGradient><path id="path-6" d="M1.08444759,0.069028512 C0.626479554,0.217126062 0.330105787,0.696436853 0.330105787,1.42160417 L0.332928394,24.2446769 C0.332928394,24.9618192 0.620128687,25.4338346 1.06468934,25.5914162 L13.4178302,12.8200087 L1.08444759,0.069028512"/><linearGradient id="linearGradient-8" x1="132.245%" x2="5.959%" y1="16.466%" y2="126.31%"><stop offset="0%" stop-color="#FC472E"/><stop offset=".332%" stop-color="#FC472F"/><stop offset="100%" stop-color="#893CD8"/></linearGradient><path id="path-9" d="M1.06468934,25.5914162 C1.38576092,25.7037661 1.78727681,25.6512388 2.22478094,25.4031937 L17.2989152,16.8325039 L13.4178302,12.8200087 L1.06468934,25.5914162"/></defs><g id="Page-1" fill="none" fill-rule="evenodd" stroke="none" stroke-width="1"><g id="13-Details-Popup" transform="translate(-754.000000, -728.000000)"><g id="popup" transform="translate(370.000000, 351.000000)"><g id="Group-8" transform="translate(156.000000, 364.000000)"><g id="Button---App-Store-Copy-2" transform="translate(204.000000, 0.000000)"><g id="Group-6" transform="translate(24.000000, 5.000000)"><g id="Icon---Google-Play-Copy" transform="translate(0.000000, 8.000000)"><mask id="mask-3" fill="#fff"><use xlink:href="#path-2"/></mask><use id="Fill-1" fill="url(#linearGradient-1)" xlink:href="#path-2"/><path id="Fill-2" fill="url(#linearGradient-4)" d="M17.3010322,16.8325039 L22.4410001,13.9106779 C23.4832478,13.316099 23.4832478,12.3487229 22.4410001,11.7556032 L17.2819796,8.82283396 L13.4178302,12.8178201 L17.3010322,16.8325039"/><mask id="mask-7" fill="#fff"><use xlink:href="#path-6"/></mask><use id="Fill-3" fill="url(#linearGradient-5)" xlink:href="#path-6"/><mask id="mask-10" fill="#fff"><use xlink:href="#path-9"/></mask><use id="Fill-4" fill="url(#linearGradient-8)" xlink:href="#path-9"/></g></g></g></g></g></g></g></svg>