<svg xmlns="http://www.w3.org/2000/svg" xmlns:xlink="http://www.w3.org/1999/xlink" viewBox="0 0 119 105.41"><defs><style>.cls-1{fill:#12191f}.cls-2{fill:#93a2ad}.cls-3{fill:url(#New_Gradient_Swatch_1)}.cls-4{fill:url(#New_Gradient_Swatch_1-2)}.cls-5{fill:url(#New_Gradient_Swatch_1-3)}.cls-6{fill:url(#New_Gradient_Swatch_1-4)}</style><linearGradient id="New_Gradient_Swatch_1" x1="18.48" x2="86.86" y1="-7095.38" y2="-7095.38" gradientTransform="matrix(1, 0, 0, -1, 0, -7037.1)" gradientUnits="userSpaceOnUse"><stop offset="0" stop-color="#789df4"/><stop offset="1" stop-color="#d694f9"/></linearGradient><linearGradient id="New_Gradient_Swatch_1-2" x1="0" x2="105.41" y1="-7089.8" y2="-7089.8" xlink:href="#New_Gradient_Swatch_1"/><linearGradient id="New_Gradient_Swatch_1-3" x1="66.69" x2="119" y1="79.66" y2="79.66" gradientTransform="matrix(1, 0, 0, 1, 0, 0)" xlink:href="#New_Gradient_Swatch_1"/><linearGradient id="New_Gradient_Swatch_1-4" x1="81.8" x2="104.28" y1="80.18" y2="80.18" gradientTransform="matrix(1, 0, 0, 1, 0, 0)" xlink:href="#New_Gradient_Swatch_1"/></defs><g id="Layer_2" data-name="Layer 2"><g id="Layer_1-2" data-name="Layer 1"><rect width="97.4" height="97.4" x="4" y="4" class="cls-1"/><polygon points="72.44 13.26 72.67 13.01 33.96 23.94 27.37 47.27 58.26 38.55 72.44 13.26" class="cls-2"/><polygon points="48.44 76.05 42.55 93.59 62.19 71.92 48.44 76.05" class="cls-2"/><polygon points="25.09 55.7 86.86 37.62 70 63.47 18.48 78.93 25.09 55.7" class="cls-3"/><path d="M101.4,4v97.4H4V4h97.4m0-4H4A4,4,0,0,0,0,4H0v97.4a4,4,0,0,0,4,4h97.4a4,4,0,0,0,4-4h0V4a4,4,0,0,0-4-4Z" class="cls-4"/><path d="M82.73,95.7a16,16,0,0,1,0-32.08H103a16,16,0,1,1,0,32.08Z" class="cls-5"/><rect width="45.34" height="25.11" x="70.17" y="67.1" class="cls-1" rx="12.56"/><path d="M81.8,74.92h3.08L87.39,79l2.5-4.07H93V85.43H90.08v-6l-2.69,4.11h-.06l-2.68-4.1v6H81.8Zm22.33,0L100.68,80l3.6,5.39h-3.35l-2-3.18-2,3.18H93.62l3.6-5.34-3.45-5.17h3.35l1.84,3,1.9-3Z" class="cls-6"/></g></g></svg>