<svg xmlns="http://www.w3.org/2000/svg" xmlns:xlink="http://www.w3.org/1999/xlink" width="18" height="18" version="1.1" viewBox="0 0 18 18"><title>Filter-cross</title><desc>Created with Sketch.</desc><g id="Page-1" fill="none" fill-rule="evenodd" stroke="none" stroke-width="1"><g id="007-c-Marketplace-Filters" fill="#00A2DE" fill-rule="nonzero" stroke="#00A2DE" stroke-width=".5" transform="translate(-340.000000, -49.000000)"><g id="Filter-cross"><path d="M0.49322889,17.3985572 C0.59486013,17.5001785 0.72805068,17.5510308 0.86124132,17.5510308 C0.99443196,17.5510308 1.1276226,17.5001785 1.22925375,17.3985572 L8.96542614,9.6599286 L16.7016401,17.3985988 C16.8032298,17.5002201 16.9365037,17.5510724 17.0696942,17.5510724 C17.2028432,17.5510724 17.3360338,17.5002201 17.4377067,17.3985988 C17.6409275,17.1953146 17.6409275,16.8656701 17.4377067,16.6623025 L9.70145109,8.92367397 L17.4377067,1.18504539 C17.6409275,0.98171946 17.6409275,0.6521166 17.4377067,0.44879076 C17.2344443,0.24546483 16.9049443,0.24546483 16.7016401,0.44879076 L8.96542614,8.18741934 L1.22921217,0.44887401 C1.02594969,0.24554808 0.6964497,0.24554808 0.49318722,0.44887401 C0.28992474,0.65215827 0.28992474,0.9818028 0.49318722,1.18512864 L8.22940119,8.92371564 L0.49322889,16.6623025 C0.28996641,16.8656285 0.28996641,17.1952729 0.49322889,17.3985572 Z" transform="translate(340.000000, 49.000000)"/></g></g></g></svg>